<svg width="57" height="10" viewBox="0 0 57 10" fill="none" xmlns="http://www.w3.org/2000/svg">
<g id="Group 27">
<path id="Vector" d="M9.82759 3.52723V3.63097C9.82759 3.72779 9.79971 3.80386 9.74395 3.85918L7.84116 6.05838L8.11299 8.94223V8.96298C8.11299 9.08746 8.0642 9.18428 7.96662 9.25344C7.89692 9.29493 7.82025 9.31568 7.73661 9.31568C7.66691 9.31568 7.61812 9.30876 7.59024 9.29493L4.91379 8.17459L2.23734 9.31568C2.20946 9.32951 2.16764 9.33643 2.11189 9.33643H2.09098C2.03522 9.33643 1.97249 9.31568 1.90279 9.27418C1.80521 9.20503 1.75642 9.10821 1.75642 8.98372V8.96298L1.98643 6.07913L0.083639 3.90068C0.0278797 3.84535 0 3.76236 0 3.65171C0 3.48574 0.0906089 3.37509 0.271827 3.31976L3.11555 2.65585L4.60015 0.166197C4.66985 0.0555449 4.77439 0.000219345 4.91379 0.000219345C5.01137 0.000219345 5.10198 0.0555449 5.18562 0.166197L6.69112 2.6351L9.55576 3.27826C9.69516 3.30593 9.78577 3.38892 9.82759 3.52723Z" fill="#FDBB48"/>
<path id="Vector_2" d="M21.6206 3.52723V3.63097C21.6206 3.72779 21.5927 3.80386 21.5369 3.85918L19.6341 6.05838L19.906 8.94223V8.96298C19.906 9.08746 19.8572 9.18428 19.7596 9.25344C19.6899 9.29493 19.6132 9.31568 19.5296 9.31568C19.4599 9.31568 19.4111 9.30876 19.3832 9.29493L16.7068 8.17459L14.0303 9.31568C14.0024 9.32951 13.9606 9.33643 13.9049 9.33643H13.8839C13.8282 9.33643 13.7655 9.31568 13.6958 9.27418C13.5982 9.20503 13.5494 9.10821 13.5494 8.98372V8.96298L13.7794 6.07913L11.8766 3.90068C11.8208 3.84535 11.793 3.76236 11.793 3.65171C11.793 3.48574 11.8836 3.37509 12.0648 3.31976L14.9085 2.65585L16.3931 0.166197C16.4628 0.0555449 16.5674 0.000219345 16.7068 0.000219345C16.8043 0.000219345 16.8949 0.0555449 16.9786 0.166197L18.4841 2.6351L21.3487 3.27826C21.4881 3.30593 21.5787 3.38892 21.6206 3.52723Z" fill="#FDBB48"/>
<path id="Vector_3" d="M33.4135 3.52723V3.63097C33.4135 3.72779 33.3856 3.80386 33.3299 3.85918L31.4271 6.05838L31.6989 8.94223V8.96298C31.6989 9.08746 31.6501 9.18428 31.5526 9.25344C31.4829 9.29493 31.4062 9.31568 31.3225 9.31568C31.2528 9.31568 31.2041 9.30876 31.1762 9.29493L28.4997 8.17459L25.8233 9.31568C25.7954 9.32951 25.7536 9.33643 25.6978 9.33643H25.6769C25.6212 9.33643 25.5584 9.31568 25.4887 9.27418C25.3911 9.20503 25.3424 9.10821 25.3424 8.98372V8.96298L25.5724 6.07913L23.6696 3.90068C23.6138 3.84535 23.5859 3.76236 23.5859 3.65171C23.5859 3.48574 23.6765 3.37509 23.8578 3.31976L26.7015 2.65585L28.1861 0.166197C28.2558 0.0555449 28.3603 0.000219345 28.4997 0.000219345C28.5973 0.000219345 28.6879 0.0555449 28.7716 0.166197L30.2771 2.6351L33.1417 3.27826C33.2811 3.30593 33.3717 3.38892 33.4135 3.52723Z" fill="#FDBB48"/>
<path id="Vector_4" d="M45.2065 3.52723V3.63097C45.2065 3.72779 45.1786 3.80386 45.1229 3.85918L43.2201 6.05838L43.4919 8.94223V8.96298C43.4919 9.08746 43.4431 9.18428 43.3455 9.25344C43.2758 9.29493 43.1992 9.31568 43.1155 9.31568C43.0458 9.31568 42.997 9.30876 42.9691 9.29493L40.2927 8.17459L37.6163 9.31568C37.5884 9.32951 37.5466 9.33643 37.4908 9.33643H37.4699C37.4141 9.33643 37.3514 9.31568 37.2817 9.27418C37.1841 9.20503 37.1353 9.10821 37.1353 8.98372V8.96298L37.3653 6.07913L35.4625 3.90068C35.4068 3.84535 35.3789 3.76236 35.3789 3.65171C35.3789 3.48574 35.4695 3.37509 35.6507 3.31976L38.4945 2.65585L39.9791 0.166197C40.0488 0.0555449 40.1533 0.000219345 40.2927 0.000219345C40.3903 0.000219345 40.4809 0.0555449 40.5645 0.166197L42.07 2.6351L44.9347 3.27826C45.0741 3.30593 45.1647 3.38892 45.2065 3.52723Z" fill="#FDBB48"/>
<path id="Vector_5" d="M57.0004 3.52723V3.63097C57.0004 3.72779 56.9726 3.80386 56.9168 3.85918L55.014 6.05838L55.2858 8.94223V8.96298C55.2858 9.08746 55.237 9.18428 55.1395 9.25344C55.0698 9.29493 54.9931 9.31568 54.9095 9.31568C54.8398 9.31568 54.791 9.30876 54.7631 9.29493L52.0866 8.17459L49.4102 9.31568C49.3823 9.32951 49.3405 9.33643 49.2847 9.33643H49.2638C49.2081 9.33643 49.1453 9.31568 49.0756 9.27418C48.9781 9.20503 48.9293 9.10821 48.9293 8.98372V8.96298L49.1593 6.07913L47.2565 3.90068C47.2007 3.84535 47.1729 3.76236 47.1729 3.65171C47.1729 3.48574 47.2635 3.37509 47.4447 3.31976L50.2884 2.65585L51.773 0.166197C51.8427 0.0555449 51.9472 0.000219345 52.0866 0.000219345C52.1842 0.000219345 52.2748 0.0555449 52.3585 0.166197L53.864 2.6351L56.7286 3.27826C56.868 3.30593 56.9586 3.38892 57.0004 3.52723Z" fill="#FDBB48"/>
</g>
</svg>
